<?xml version="1.0" standalone="no"?>
<!DOCTYPE svg PUBLIC "-//W3C//DTD SVG 20010904//EN"
 "http://www.w3.org/TR/2001/REC-SVG-20010904/DTD/svg10.dtd">
<svg version="1.0" xmlns="http://www.w3.org/2000/svg"
 width="260.000000pt" height="260.000000pt" viewBox="0 0 260.000000 260.000000"
 preserveAspectRatio="xMidYMid meet">
<metadata>
Created by potrace 1.11, written by Peter Selinger 2001-2013
</metadata>
<g transform="translate(0.000000,260.000000) scale(0.100000,-0.100000)"
fill="#000000" stroke="none">
<path d="M1060 2463 c-129 -75 -293 -170 -365 -211 -71 -41 -219 -126 -328
-189 l-197 -115 2 -651 3 -652 140 -81 c77 -44 214 -124 305 -176 91 -53 181
-104 200 -115 19 -11 133 -77 253 -147 120 -69 219 -126 221 -126 2 0 60 32
128 71 67 39 144 83 169 98 26 14 222 127 437 251 l392 225 -3 654 -2 653
-525 305 c-289 167 -541 312 -560 323 l-36 18 -234 -135z m461 -142 c123 -71
348 -201 498 -288 l275 -159 0 -574 0 -575 -100 -59 c-54 -32 -137 -81 -184
-108 -47 -27 -92 -53 -100 -57 -8 -5 -116 -68 -240 -139 -124 -72 -258 -149
-298 -172 -62 -37 -76 -41 -95 -32 -25 13 -36 19 -377 217 -140 81 -273 158
-295 170 -22 13 -98 57 -170 98 l-130 76 -3 579 -2 579 57 32 c32 17 173 98
313 180 140 81 332 192 425 245 94 54 174 102 180 107 5 5 12 9 16 9 4 0 107
-58 230 -129z"/>
<path d="M900 2045 c-212 -123 -398 -232 -415 -243 l-30 -19 -1 -486 0 -487
100 -57 c56 -31 133 -75 171 -98 39 -23 182 -106 318 -185 223 -128 251 -141
272 -132 14 6 93 51 177 100 84 49 173 100 198 114 25 14 107 62 184 107 76
44 142 81 147 81 5 0 9 5 9 10 0 6 5 10 11 10 7 0 31 12 54 27 l42 26 0 487 0
486 -61 35 c-34 20 -178 103 -321 186 -143 82 -304 175 -358 207 -54 31 -101
56 -105 55 -4 0 -180 -101 -392 -224z m605 -372 c28 -8 53 -18 57 -21 5 -6
-47 -132 -54 -132 -2 0 -19 5 -38 10 -112 34 -244 -14 -305 -109 -90 -144 -42
-325 109 -403 44 -23 130 -30 196 -15 l36 7 31 -64 32 -65 -37 -12 c-53 -18
-60 -19 -132 -23 -200 -9 -381 141 -418 345 -6 29 -8 63 -6 75 3 19 -7 30 -63
63 -53 32 -69 37 -73 26 -3 -8 -4 -117 -4 -243 l2 -228 -72 1 -71 0 -3 382 -2
381 117 -68 c65 -38 139 -80 164 -94 l47 -25 26 40 c101 151 288 221 461 172z
m405 -407 l0 -385 -77 2 -78 2 0 243 c0 179 -3 241 -12 238 -6 -3 -67 -37
-135 -77 -67 -39 -136 -80 -153 -89 -16 -10 -58 -34 -92 -54 -56 -33 -64 -35
-90 -24 -15 7 -30 15 -33 18 -3 3 -18 12 -33 20 -16 8 -33 22 -38 32 -23 43
-13 168 13 168 6 0 33 -14 61 -31 l50 -31 46 25 c25 14 163 93 306 175 143 83
261 150 263 151 1 1 2 -172 2 -383z"/>
</g>
</svg>
